<?xml version="1.0" encoding="UTF-8"?>
<svg width="48px" height="55px" viewBox="0 0 48 55" version="1.1" xmlns="http://www.w3.org/2000/svg" xmlns:xlink="http://www.w3.org/1999/xlink">
    <!-- Generator: Sketch 47.1 (45422) - http://www.bohemiancoding.com/sketch -->
    <title>Group</title>
    <desc>Created with Sketch.</desc>
    <defs></defs>
    <g id="Page-1" stroke="none" stroke-width="1" fill="none" fill-rule="evenodd">
        <g id="Desktop-HD" transform="translate(-305.000000, -42.000000)" fill-rule="nonzero" fill="#000000">
            <g id="noun_763027_cc" transform="translate(305.000000, 42.000000)">
                <g id="Group">
                    <path d="M23.9999994,1.38950518e-13 L0,13.7498106 L0,41.2501894 L0.794802005,41.7058948 L23.9999994,55 L48,41.2501894 L48,13.7498106 L23.9999994,0 L23.9999994,1.38950518e-13 Z M23.9999994,4.64132571 L33.5860363,18.7119084 L14.4139625,18.7119084 L23.9999994,4.64132571 Z M18.8115091,6.6189415 L10.9293639,18.1883697 L4.773586,14.6618935 L18.8115091,6.6189415 Z M29.1892453,6.6189415 L43.2264128,14.661099 L37.0714306,18.1875752 L29.1892453,6.6189415 L29.1892453,6.6189415 Z M3.18239067,17.3957589 L9.33892418,20.9222963 L3.18239067,33.4816873 L3.18239067,17.3957589 Z M44.8176081,17.3957589 L44.8176081,33.4824818 L38.6610346,20.9222963 L44.8168124,17.3957589 L44.8176081,17.3957589 Z M14.1738907,21.8690903 L33.8261081,21.8690903 L23.9999994,38.7583239 L14.1738907,21.8690903 L14.1738907,21.8690903 Z M11.5377175,23.654695 L21.1245106,40.1306955 L4.05178042,38.9279683 L11.5377175,23.654695 L11.5377175,23.654695 Z M36.4622813,23.654695 L43.9489746,38.9279683 L26.8762838,40.1306955 L36.4622813,23.654695 L36.4622813,23.654695 Z M8.36928967,42.3981612 L22.4088041,43.3880996 L22.4088041,50.4419076 L8.36928967,42.3981612 Z M39.6314647,42.3981612 L25.5911947,50.4419076 L25.5911947,43.3880996 L39.6314647,42.3981612 Z" id="Shape"></path>
                </g>
            </g>
        </g>
    </g>
</svg>